<?xml version="1.0" encoding="utf-8"?>
<!-- Generator: Adobe Illustrator 25.2.3, SVG Export Plug-In . SVG Version: 6.00 Build 0)  -->
<svg version="1.1" id="Capa_1" xmlns="http://www.w3.org/2000/svg" xmlns:xlink="http://www.w3.org/1999/xlink" x="0px" y="0px"
	 viewBox="0 0 512 512" style="enable-background:new 0 0 512 512;" xml:space="preserve">
<style type="text/css">
	.st0{fill:#455A64;}
	.st1{fill:#78909C;}
	.st2{fill:#42A5F5;}
	.st3{fill:#90CAF9;}
	.st4{fill:#ADD8FB;}
</style>
<g>
	<path class="st0" d="M368,120.9H145.2l38.5-57.7c4.5-6.8,11.3-10.2,19.2-10.2h108.6c7.9,0,14.7,3.4,19.2,10.2L368,120.9z"/>
	<path class="st0" d="M142.9,108.4H75.1V88.1c0-7.9,5.7-13.6,13.6-13.6h40.7c7.9,0,13.6,5.7,13.6,13.6V108.4z"/>
	<path class="st1" d="M436.9,459H75.1c-24.9,0-45.2-20.4-45.2-45.2V142.3c0-24.9,20.4-45.2,45.2-45.2h361.9
		c24.9,0,45.2,20.4,45.2,45.2v271.4C482.2,438.6,461.8,459,436.9,459z"/>
	<circle class="st0" cx="256" cy="278.1" r="135.7"/>
	<circle class="st2" cx="256" cy="278.1" r="101.8"/>
	<path class="st3" d="M312.5,244.1c-13.6-15.8-33.9-24.9-54.3-24.9s-40.7,9-54.3,24.9c-5.7,5.7-4.5,14.7,1.1,20.4
		c5.7,5.7,14.7,4.5,20.4-1.1c17-19.2,48.6-19.2,65.6,0c3.4,3.4,6.8,4.5,11.3,4.5c3.4,0,6.8-1.1,10.2-3.4
		C317.1,260,318.2,249.8,312.5,244.1z"/>
	<ellipse class="st4" cx="109" cy="136.7" rx="22.6" ry="17"/>
</g>
</svg>
