<?xml version="1.0"?>
<svg xmlns="http://www.w3.org/2000/svg" xmlns:xlink="http://www.w3.org/1999/xlink" xmlns:svgjs="http://svgjs.com/svgjs" version="1.1" width="512" height="512" x="0" y="0" viewBox="0 0 512 512" style="enable-background:new 0 0 512 512" xml:space="preserve" class=""><g>
<g xmlns="http://www.w3.org/2000/svg">
	<g>
		<path d="M117.333,10.667h-64C23.936,10.667,0,34.603,0,64v170.667C0,264.064,23.936,288,53.333,288h96V21.461    C140.395,14.72,129.344,10.667,117.333,10.667z" fill="#bfc1ce" data-original="#000000" style="" class=""/>
	</g>
</g>
<g xmlns="http://www.w3.org/2000/svg">
	<g>
		<path d="M512,208c0-18.496-10.581-34.731-26.347-42.667c3.285-6.549,5.013-13.803,5.013-21.333    c0-18.517-10.603-34.752-26.368-42.688c4.885-9.728,6.315-20.928,3.861-32.043C463.381,47.659,443.051,32,419.819,32H224    c-13.995,0-35.968,4.416-53.333,12.608v228.651l2.56,1.301l61.44,133.12V480c0,3.243,1.472,6.315,3.989,8.341    c0.683,0.512,16.512,12.992,38.677,12.992c24.683,0,64-39.061,64-85.333c0-29.184-10.453-65.515-16.981-85.333h131.776    c28.715,0,53.141-21.248,55.637-48.363c1.387-15.211-3.691-29.824-13.653-40.725C506.923,232.768,512,220.821,512,208z" fill="#bfc1ce" data-original="#000000" style="" class=""/>
	</g>
</g>
<g xmlns="http://www.w3.org/2000/svg">
</g>
<g xmlns="http://www.w3.org/2000/svg">
</g>
<g xmlns="http://www.w3.org/2000/svg">
</g>
<g xmlns="http://www.w3.org/2000/svg">
</g>
<g xmlns="http://www.w3.org/2000/svg">
</g>
<g xmlns="http://www.w3.org/2000/svg">
</g>
<g xmlns="http://www.w3.org/2000/svg">
</g>
<g xmlns="http://www.w3.org/2000/svg">
</g>
<g xmlns="http://www.w3.org/2000/svg">
</g>
<g xmlns="http://www.w3.org/2000/svg">
</g>
<g xmlns="http://www.w3.org/2000/svg">
</g>
<g xmlns="http://www.w3.org/2000/svg">
</g>
<g xmlns="http://www.w3.org/2000/svg">
</g>
<g xmlns="http://www.w3.org/2000/svg">
</g>
<g xmlns="http://www.w3.org/2000/svg">
</g>
</g></svg>
