<?xml version="1.0" encoding="utf-8"?>
<!-- Generator: Adobe Illustrator 25.2.3, SVG Export Plug-In . SVG Version: 6.00 Build 0)  -->
<svg version="1.1" id="Camada_1" xmlns="http://www.w3.org/2000/svg" xmlns:xlink="http://www.w3.org/1999/xlink" x="0px" y="0px"
	 viewBox="0 0 150 36" style="enable-background:new 0 0 150 36;" xml:space="preserve">
<style type="text/css">
	.st0{fill:#FFFFFF;}
</style>
<g>
	<path class="st0" d="M36.2,22.9c-0.5-1.1-0.8-2.3-1-3.6c-0.2-1.3-0.3-2.6-0.3-4c0-1.3,0.1-2.6,0.2-3.9c0.1-1.2,0.2-2.3,0.4-3.3
		c0-0.3,0.1-0.5,0.1-0.6c0-0.1,0.1-0.3,0.2-0.3c0.1-0.1,0.2-0.1,0.4-0.1c0.2,0,0.4,0,0.7-0.1c0.2,0,0.4,0,0.6,0c0.2,0,0.5,0,0.7,0
		c0.2,0,0.4,0,0.6,0c0.2,0,0.3,0,0.4,0c0.3,0,0.4,0,0.5,0C40,6.9,40,7.1,40,7.3c0,1.1,0,2.2,0,3.3c-0.1,1.1-0.1,2.3-0.2,3.4
		c0,1.1,0,2.2,0,3.3c0.1,1.1,0.2,2,0.6,2.9c0.2,0.6,0.5,1,0.7,1.2c0.3,0.2,0.5,0.4,0.8,0.4c0.5,0,0.9-0.2,1.4-0.7
		c0.4-0.4,0.8-1,1-1.5c0.2-0.4,0.3-1,0.4-1.7c0.1-0.7,0.2-1.5,0.3-2.4c0.1-0.9,0.1-1.8,0.2-2.7c0-0.9,0.1-1.7,0.1-2.5
		c0.1-0.7,0.1-1.4,0.2-1.8c0.1-0.5,0.1-0.7,0.3-0.8c0.1,0,0.3-0.1,0.7-0.1c0.4,0,0.9-0.1,1.4-0.1c0.4,0,0.8,0,1.1,0
		c0.3,0,0.4,0.1,0.6,0.2c0.1,0.1,0.2,0.3,0.2,0.6c0,0.3,0.1,0.6,0.1,1.1c0,0.7,0.1,1.7,0.1,2.8s-0.1,2.2-0.2,3.5
		c-0.1,1.2-0.3,2.4-0.6,3.7c-0.3,1.2-0.7,2.4-1.2,3.4c-0.7,1.4-1.6,2.4-2.7,3.1c-1.1,0.7-2.3,1.1-3.5,1.1c-1.1,0-2.1-0.3-3.1-0.9
		C37.6,25.2,36.8,24.2,36.2,22.9z"/>
	<path class="st0" d="M56.2,27.5c0,0.1-0.1,0.2-0.1,0.2c0,0.1-0.1,0.1-0.3,0.1c-0.2,0-0.5,0-0.9,0c-0.4,0-1,0-1.8-0.1
		c-0.9,0-1.3-0.1-1.3-0.2c-0.1-0.3-0.1-0.7-0.1-1.5c0-0.7,0-1.6,0-2.5c0-1,0.1-2,0.1-3.2c0.1-1.1,0.1-2.2,0.2-3.3
		c0.1-1.1,0.1-2,0.2-2.9c0.1-0.9,0.1-1.6,0.1-2.1c0.1-1,0.1-1.9,0.2-2.6c0.1-0.7,0.2-1.3,0.2-1.8c0.1-0.5,0.2-0.8,0.3-1.1
		c0.1-0.3,0.3-0.4,0.4-0.6c0.1-0.1,0.2-0.1,0.4-0.2c0.2-0.1,0.4-0.1,0.7-0.1c0.2,0,0.5-0.1,0.7-0.1c0.2,0,0.4,0,0.5,0
		c1.8,0.1,3.4,0.3,4.8,0.8c1.4,0.4,2.5,1.1,3.5,2c0.4,0.4,0.8,0.9,1.1,1.4c0.3,0.6,0.5,1.2,0.7,1.8c0.2,0.6,0.3,1.3,0.3,2
		c0,0.7,0,1.3-0.2,1.9c-0.3,1-0.7,1.9-1.3,2.6c-0.6,0.8-1.3,1.4-2,2c-0.8,0.5-1.6,1-2.6,1.3c-0.9,0.3-1.9,0.5-2.8,0.6
		c-0.2,0-0.3,0.1-0.3,0.1c0,0-0.1,0.1-0.1,0.3c0,0.2,0,0.5-0.1,1c0,0.5-0.1,1-0.1,1.5c-0.1,0.5-0.1,1.1-0.2,1.6
		C56.4,26.9,56.3,27.3,56.2,27.5z M60.9,14c0.2-2.2-0.8-3.6-2.8-4c-0.2,0-0.3,0-0.4,0c-0.1,0-0.2,0.2-0.2,0.6c0,0.4,0,1-0.1,1.5
		c0,0.6-0.1,1.2-0.1,1.8c0,0.6-0.1,1.2-0.1,1.8c0,0.6-0.1,1.1-0.1,1.5c0,0.4,0.1,0.6,0.2,0.6c0,0,0.1,0,0.2,0c0.1,0,0.2-0.1,0.3-0.1
		c0.3-0.1,0.7-0.3,1-0.5c0.4-0.2,0.7-0.4,1-0.7c0.3-0.3,0.5-0.6,0.7-1C60.7,15,60.8,14.5,60.9,14z"/>
	<path class="st0" d="M68.2,26c0-0.2-0.1-0.7-0.1-1.3c0-0.6-0.1-1.4-0.1-2.3c0-0.9-0.1-1.9-0.1-2.9c0-1.1-0.1-2.1-0.1-3.2
		c0-1.1,0-2.1,0-3.1c0-1,0-1.9,0-2.7c0-0.8,0-1.4,0-2c0-0.5,0.1-0.8,0.1-0.8c0,0,0.2-0.1,0.6-0.1c0.4,0,0.8,0,1.3,0
		c0.4,0,0.8,0,1.1,0c0.3,0,0.5,0,0.6,0.1c0.1,0.1,0.2,0.2,0.3,0.4c0.1,0.2,0.1,0.4,0.1,0.8c0,0.4,0.1,1.1,0.2,2.1
		c0.1,1,0.1,2.2,0.2,3.5c0.1,1.3,0.2,2.7,0.2,4.2c0.1,1.5,0.2,2.8,0.2,4c0.1,1.2,0.1,2.2,0.1,3c0,0.8,0,1.2,0,1.2
		c0,0-0.3,0.1-0.7,0.1c-0.4,0-1,0-1.6,0.1c-0.6,0-1,0-1.3,0c-0.3,0-0.5,0-0.7-0.1c-0.1-0.1-0.2-0.2-0.3-0.3
		C68.2,26.4,68.2,26.2,68.2,26z"/>
	<path class="st0" d="M76.7,29c-0.6,0.1-1,0-1.3-0.3c-0.2-0.3-0.4-0.9-0.4-1.9c0-0.6,0-1.4,0-2.3c0-0.9,0-1.9,0.1-3
		c0-1.1,0.1-2.2,0.1-3.4c0-1.2,0.1-2.3,0.1-3.4c0-1.1,0.1-2.1,0.1-3c0-0.9,0.1-1.6,0.1-2.2c0-0.2,0-0.5,0-0.8c0-0.3,0-0.6,0.1-0.9
		c0.1-0.3,0.2-0.5,0.3-0.7c0.1-0.2,0.4-0.3,0.7-0.3c2.1,0,3.9,0.1,5.4,0.4c1.5,0.3,2.8,0.9,3.8,1.7c1,0.8,1.7,1.9,2.2,3.2
		c0.5,1.3,0.7,3,0.7,5c0,2-0.3,3.7-1,5.2c-0.7,1.4-1.5,2.6-2.7,3.5c-1.1,0.9-2.4,1.6-3.9,2.1C79.9,28.4,78.3,28.8,76.7,29z
		 M84.4,16.1c0-0.5-0.1-1-0.2-1.6c-0.1-0.6-0.4-1.2-0.7-1.7c-0.3-0.5-0.7-0.9-1.2-1.2c-0.5-0.3-1.2-0.4-1.9-0.4
		c-0.1,0-0.2,0.1-0.2,0.1c0,0-0.1,0.1-0.1,0.3c0,0.1,0,0.4,0,0.7c0,0.3,0,0.7,0,1.2c0,0.8,0,1.6,0,2.4c0,0.8,0,1.6,0,2.4
		c0,0.8,0,1.4-0.1,2.1c0,0.6-0.1,1.1-0.1,1.5c0,0.6-0.1,1.1,0,1.4c0,0.3,0.1,0.4,0.3,0.4c0.9-0.1,1.6-0.4,2.1-0.9
		c0.6-0.5,1-1.1,1.3-1.8c0.3-0.7,0.6-1.5,0.7-2.3C84.3,17.8,84.4,17,84.4,16.1z"/>
</g>
<g>
	<path class="st0" d="M93.1,25.6c-0.1-1.2-0.2-2.6-0.3-4.2c0-1.6-0.1-3.2,0-4.9c0-1.7,0.1-3.3,0.1-4.9c0.1-1.6,0.2-2.9,0.2-4
		c0-0.3,0-0.5,0-0.6c0-0.1,0-0.3,0.1-0.3c0-0.1,0.1-0.1,0.3-0.1c0.1,0,0.3,0,0.6,0c0.4,0,0.8,0,1.4,0c0.5,0,1,0,1.6,0
		c0.4,0,0.7,0.1,0.8,0.2C98,6.7,98,6.9,98,7.3c0,1.9,0,3.8,0,5.5c0,1.7,0,3.3,0.1,4.7c0,1.4,0.1,2.5,0.1,3.4c0,0.9,0,1.4,0,1.6
		c0,0.6,0.3,1,0.8,1.2c0.5,0.2,1,0.3,1.6,0.3c0.2,0,0.5,0,0.7,0c0.2,0,0.4-0.1,0.6-0.1c0.6-0.1,1-0.1,1.2,0c0.1,0,0.2,0.1,0.2,0.1
		c0,0,0.1,0.1,0.1,0.3c0,0.1,0,0.4,0,0.6s0,0.7,0,1.2c0,0.8,0,1.3,0,1.6c0,0.3-0.1,0.5-0.2,0.6c-0.1,0.1-0.3,0.1-0.7,0.2
		c-0.4,0.1-0.8,0.1-1.4,0.2c-0.5,0.1-1.1,0.1-1.7,0.1c-0.6,0-1.2,0-1.7,0c-0.6,0-1.2,0-1.7-0.1c-0.6-0.1-1-0.3-1.5-0.5
		c-0.4-0.2-0.8-0.6-1.1-1C93.3,26.9,93.2,26.3,93.1,25.6z"/>
	<path class="st0" d="M108.6,27.3c-0.9-0.8-1.8-1.8-2.5-2.8c-0.7-1.1-1.4-2.2-1.9-3.4c-0.5-1.2-0.9-2.4-1.2-3.6
		c-0.3-1.2-0.4-2.3-0.4-3.4c0-1,0.2-1.9,0.5-2.7c0.3-0.8,0.7-1.6,1.1-2.2c0.5-0.6,1-1.1,1.6-1.4c0.6-0.3,1.3-0.5,2-0.5
		c0.6,0,1.1,0.1,1.8,0.4c0.6,0.2,1.2,0.6,1.9,1.1c0.2,0.2,0.4,0.3,0.5,0.4c0.1,0.1,0.2,0.1,0.4,0.1c0.1,0,0.2,0,0.3-0.1
		c0.1-0.1,0.2-0.2,0.4-0.3c0.6-0.6,1.3-1.1,2-1.4c0.7-0.3,1.5-0.5,2.2-0.5c0.8,0,1.6,0.2,2.3,0.6c0.7,0.4,1.3,1.1,1.7,2.1
		c0.5,1.1,0.7,2.2,0.6,3.3c-0.1,1.1-0.4,2.2-0.9,3.3c-0.5,1.1-1.2,2.2-2,3.2c-0.8,1-1.7,2-2.7,2.9c-1,0.9-2,1.7-3,2.5
		c-1,0.8-1.9,1.4-2.8,2c-0.3,0.2-0.5,0.3-0.8,0.5c-0.2,0.1-0.4,0.2-0.6,0.2C109,27.6,108.8,27.5,108.6,27.3z"/>
	<path class="st0" d="M127.1,27.2c-0.2-0.5-0.4-1.2-0.7-1.9c-0.3-0.8-0.5-1.6-0.8-2.6c-0.3-0.9-0.5-1.9-0.8-2.9
		c-0.3-1-0.5-2-0.8-2.9c-0.2-0.9-0.4-1.8-0.6-2.6c-0.2-0.8-0.3-1.5-0.4-2c-0.1-0.5-0.2-0.9-0.2-1.2c-0.1-0.3-0.1-0.5-0.1-0.6
		c0-0.1,0.1-0.3,0.1-0.4c0.1-0.1,0.2-0.2,0.3-0.3c0.1-0.1,0.4-0.2,0.8-0.4c0.4-0.2,0.8-0.3,1.2-0.5c0.4-0.1,0.8-0.3,1.1-0.4
		c0.3-0.1,0.5-0.1,0.6-0.1c0,0,0.1,0.1,0.1,0.3c0.1,0.2,0.1,0.4,0.2,0.6c0.1,0.2,0.1,0.5,0.2,0.7c0.1,0.2,0.1,0.4,0.2,0.6
		c0,0.1,0.1,0.4,0.2,0.9c0.1,0.5,0.3,1.1,0.4,1.7c0.2,0.7,0.4,1.4,0.6,2.1c0.2,0.7,0.4,1.4,0.6,2c0.2,0.6,0.3,1.1,0.4,1.6
		c0.1,0.4,0.2,0.6,0.2,0.7c0,0,0.1-0.2,0.2-0.6c0.1-0.4,0.3-1,0.4-1.6c0.2-0.7,0.4-1.4,0.6-2.3c0.2-0.8,0.4-1.6,0.6-2.4
		c0.2-0.8,0.4-1.5,0.5-2.1c0.2-0.6,0.3-1.1,0.4-1.4c0.1-0.5,0.3-0.9,0.4-1c0.1-0.2,0.2-0.3,0.3-0.3c0.2,0,0.4,0,0.7,0
		c0.3,0,0.6,0,0.8,0.1c0.3,0,0.6,0.1,0.8,0.1c0.3,0,0.5,0.1,0.6,0.1c0.4,0.1,0.6,0.1,0.6,0.3c0.1,0.1,0,0.4-0.1,1
		c-0.1,0.6-0.3,1.3-0.5,2.1c-0.2,0.9-0.5,1.8-0.8,2.9c-0.3,1.1-0.6,2.2-0.9,3.3c-0.3,1.1-0.6,2.2-1,3.3c-0.3,1.1-0.6,2-0.9,2.9
		c-0.3,0.9-0.5,1.6-0.7,2.1c-0.2,0.6-0.3,0.9-0.3,0.9c-0.1,0.1-0.2,0.2-0.4,0.3c-0.2,0-0.6,0.1-1.2,0.1c-0.4,0-0.7,0.1-1.1,0.1
		c-0.4,0-0.7,0.1-0.8,0.1c-0.3,0-0.5,0-0.6,0C127.4,27.6,127.3,27.5,127.1,27.2z"/>
</g>
<g>
	<path class="st0" d="M18.9,6c1.6-1.6,3.1-2.8,4.7-3.5c1.6-0.7,3.3-1,5.1-0.8c0.8,0.1,1.5,0.2,2,0.4c0.5,0.2,1.1,0.5,1.6,1
		c0.2,0.2,0.3,0.3,0.4,0.4c0.1,0.1,0.1,0.2,0.1,0.4c0,0.2-0.1,0.4-0.2,0.7c-0.1,0.3-0.3,0.7-0.5,1.2c-0.2,0.5-0.4,0.9-0.5,1.2
		c-0.1,0.3-0.3,0.5-0.4,0.6c-0.1,0.1-0.3,0.2-0.4,0.2c-0.2,0-0.4,0-0.7-0.1c-1.2-0.2-2.2-0.1-3,0.2c-0.8,0.3-1.6,1-2.3,1.9
		c-0.6,0.8-1.1,1.8-1.6,3c-0.5,1.2-0.8,2.5-1.1,3.8c-0.2,1.3-0.3,2.7-0.3,4s0.3,2.5,0.8,3.6c0.4,1.1,1.1,2,2,2.7c0.9,0.7,2,1,3.4,1
		c0.8,0,1.5-0.1,1.9-0.3c0.5-0.2,0.8-0.4,1.1-0.7c0.3-0.2,0.5-0.5,0.6-0.7c0.2-0.2,0.4-0.3,0.6-0.3c0.3,0,0.7,0.2,1.2,0.6
		c1.1,0.8,1.8,1.3,2.2,1.7c0.4,0.3,0.5,0.6,0.3,0.9c-0.5,0.8-1.1,1.6-1.9,2.2c-0.8,0.6-1.6,1.2-2.5,1.6s-1.8,0.7-2.8,0.9
		c-1,0.2-1.9,0.3-2.8,0.3c-0.9,0-1.7-0.1-2.4-0.3c-2-0.5-3.7-1.4-5.1-2.6c-1.3-1.2-2.4-2.7-3.1-4.3c-0.7-1.7-1.2-3.5-1.4-5.4
		c-0.2-1.9-0.1-3.9,0.3-5.8c0.3-1.9,0.9-3.8,1.7-5.5C16.8,8.7,17.7,7.3,18.9,6z"/>
</g>
</svg>
